<svg xmlns="http://www.w3.org/2000/svg" width="25.3" height="24.92" viewBox="0 0 25.3 24.92">
  <path id="github-1" d="M12.65,0A12.649,12.649,0,0,0,9.583,24.92a1.708,1.708,0,0,1-.095-.6V22.168H7.907a2.161,2.161,0,0,1-1.993-1.076c-.411-.759-.475-1.929-1.518-2.657-.317-.253-.064-.506.284-.475a3.318,3.318,0,0,1,1.708,1.3,1.615,1.615,0,0,0,1.676.823,12.752,12.752,0,0,0,1.771-.127A3.921,3.921,0,0,1,11.511,17.9C7.274,17.392,5.25,15.3,5.25,12.457A5.22,5.22,0,0,1,6.673,9.041c-.284-.981-.664-3,.127-3.8A4.489,4.489,0,0,1,10.12,6.8a9.739,9.739,0,0,1,3.067-.506,9.586,9.586,0,0,1,3.067.506,4.487,4.487,0,0,1,3.32-1.549c.759.759.411,2.814.095,3.8a5.122,5.122,0,0,1,1.392,3.416c0,2.847-1.993,4.934-6.2,5.377a4.4,4.4,0,0,1,1.993,3.573v2.881c0,.095-.031.189-.031.284A12.639,12.639,0,0,0,12.65,0Z" fill="#fff"/>
</svg>
