<svg id="Group_90" data-name="Group 90" xmlns="http://www.w3.org/2000/svg" width="25.889" height="25.889" viewBox="0 0 25.889 25.889">
  <path id="Path_2140" data-name="Path 2140" d="M5.738,146.922l-.9,3.364-3.294.07a12.968,12.968,0,0,1-.1-12.088h0l2.932.538,1.285,2.915a7.726,7.726,0,0,0,.073,5.2Z" transform="translate(0 -131.276)" fill="#fff"/>
  <path id="Path_2141" data-name="Path 2141" d="M274.062,208.176a12.94,12.94,0,0,1-4.614,12.513h0l-3.693-.188-.523-3.263a7.715,7.715,0,0,0,3.319-3.94h-6.922v-5.121h12.434Z" transform="translate(-248.399 -197.65)" fill="#fff"/>
  <path id="Path_2142" data-name="Path 2142" d="M50.014,316.8h0a12.949,12.949,0,0,1-19.506-3.96l4.195-3.434A7.7,7.7,0,0,0,45.8,313.351Z" transform="translate(-28.966 -293.764)" fill="#fff"/>
  <path id="Path_2143" data-name="Path 2143" d="M48.383,2.98,44.19,6.413a7.7,7.7,0,0,0-11.348,4.031L28.625,6.992h0A12.947,12.947,0,0,1,48.383,2.98Z" transform="translate(-27.177)" fill="#fff"/>
</svg>
