<svg xmlns="http://www.w3.org/2000/svg" width="909.13" height="597.133" viewBox="0 0 909.13 597.133"><defs><style>.a{fill:none;}.b,.c,.e{fill:#fff;}.b{opacity:0.46;}.c{opacity:0.79;}.d,.e{stroke:none;}</style></defs><g transform="translate(168.642 -317)"><g transform="translate(-891 -37)"><g class="a" transform="translate(1008 354)"><path class="d" d="M14.86,0H351.228c8.207,0,14.86,7.978,14.86,17.818V205.182c0,9.841-6.653,17.818-14.86,17.818H14.86C6.653,223,0,215.022,0,205.182V17.818C0,7.978,6.653,0,14.86,0Z"/><path class="e" d="M 14.859619140625 1 C 7.2174072265625 1 1 8.544723510742188 1 17.81840515136719 L 1 205.1815948486328 C 1 214.4552764892578 7.2174072265625 222 14.859619140625 222 L 351.2274780273438 222 C 358.8697509765625 222 365.087158203125 214.4552764892578 365.087158203125 205.1815948486328 L 365.087158203125 17.81840515136719 C 365.087158203125 8.544723510742188 358.8697509765625 1 351.2274780273438 1 L 14.859619140625 1 M 14.859619140625 0 L 351.2274780273438 0 C 359.4342651367188 0 366.087158203125 7.9775390625 366.087158203125 17.81840515136719 L 366.087158203125 205.1815948486328 C 366.087158203125 215.0224151611328 359.4342651367188 223 351.2274780273438 223 L 14.859619140625 223 C 6.65289306640625 223 0 215.0224151611328 0 205.1815948486328 L 0 17.81840515136719 C 0 7.9775390625 6.65289306640625 0 14.859619140625 0 Z"/></g><rect class="b" width="189" height="47" rx="11" transform="translate(1031 375)"/><rect class="b" width="298" height="48" rx="11" transform="translate(1031 441)"/><rect class="b" width="269" height="48" rx="11" transform="translate(1031 508)"/><rect class="b" width="137" height="9" transform="translate(1059 380)"/><rect class="b" width="236" height="9" transform="translate(1059 447)"/><rect class="b" width="217" height="9" transform="translate(1059 514)"/><rect class="b" width="137" height="9" transform="translate(1059 393)"/><rect class="b" width="247" height="9" transform="translate(1059 460)"/><rect class="b" width="206" height="9" transform="translate(1059 527)"/><rect class="b" width="122" height="9" transform="translate(1059 406)"/><rect class="b" width="157" height="9" transform="translate(1059 473)"/><rect class="b" width="84" height="9" transform="translate(1059 540)"/><circle class="c" cx="7" cy="7" r="7" transform="translate(1037 378)"/><circle class="c" cx="7" cy="7" r="7" transform="translate(1037 445)"/><circle class="c" cx="7" cy="7" r="7" transform="translate(1037 512)"/></g><g transform="translate(-680 211)"><g class="a" transform="translate(1008 354)"><path class="d" d="M16.743,0h379c9.247,0,16.743,8.989,16.743,20.077V231.188c0,11.088-7.5,20.077-16.743,20.077h-379C7.5,251.265,0,242.276,0,231.188V20.077C0,8.989,7.5,0,16.743,0Z"/><path class="e" d="M 16.74307250976563 1 C 8.062286376953125 1 0.999969482421875 9.557846069335938 0.999969482421875 20.07684326171875 L 0.999969482421875 231.1882629394531 C 0.999969482421875 241.7073211669922 8.062286376953125 250.2651672363281 16.74307250976563 250.2651672363281 L 395.7454528808594 250.2651672363281 C 404.4262390136719 250.2651672363281 411.4885559082031 241.7073211669922 411.4885559082031 231.1882629394531 L 411.4885559082031 20.07684326171875 C 411.4885559082031 9.557846069335938 404.4262390136719 1 395.7454528808594 1 L 16.74307250976563 1 M 16.74307250976563 0 L 395.7454528808594 0 C 404.9924621582031 0 412.4885559082031 8.988739013671875 412.4885559082031 20.07684326171875 L 412.4885559082031 231.1882629394531 C 412.4885559082031 242.2764282226563 404.9924621582031 251.2651672363281 395.7454528808594 251.2651672363281 L 16.74307250976563 251.2651672363281 C 7.496124267578125 251.2651672363281 -3.0517578125e-05 242.2764282226563 -3.0517578125e-05 231.1882629394531 L -3.0517578125e-05 20.07684326171875 C -3.0517578125e-05 8.988739013671875 7.496124267578125 0 16.74307250976563 0 Z"/></g><rect class="b" width="213" height="53" rx="11" transform="translate(1034 378)"/><rect class="b" width="336" height="54" rx="11" transform="translate(1034 452)"/><rect class="b" width="303" height="54" rx="11" transform="translate(1034 528)"/><rect class="b" width="155" height="10" transform="translate(1065 383)"/><rect class="b" width="266" height="10" transform="translate(1065 459)"/><rect class="b" width="245" height="10" transform="translate(1065 534)"/><rect class="b" width="155" height="10" transform="translate(1065 398)"/><rect class="b" width="279" height="11" transform="translate(1065 473)"/><rect class="b" width="233" height="10" transform="translate(1065 549)"/><rect class="b" width="138" height="10" transform="translate(1065 413)"/><rect class="b" width="177" height="10" transform="translate(1065 488)"/><rect class="b" width="95" height="10" transform="translate(1065 564)"/><ellipse class="c" cx="7.5" cy="8" rx="7.5" ry="8" transform="translate(1041 381)"/><circle class="c" cx="7.5" cy="7.5" r="7.5" transform="translate(1041 457)"/><ellipse class="c" cx="7.5" cy="8" rx="7.5" ry="8" transform="translate(1041 532)"/></g><g transform="translate(-1176.642 274)"><g class="a" transform="translate(1008 354)"><path class="d" d="M19.066,0h431.6c10.53,0,19.067,10.236,19.067,22.863V263.27c0,12.627-8.536,22.863-19.067,22.863H19.066C8.536,286.133,0,275.9,0,263.27V22.863C0,10.236,8.536,0,19.066,0Z"/><path class="e" d="M 19.06646728515625 0.999969482421875 C 9.104583740234375 0.999969482421875 1 10.8076171875 1 22.8629150390625 L 1 263.2699890136719 C 1 275.3252868652344 9.104583740234375 285.1329345703125 19.06646728515625 285.1329345703125 L 450.6625366210938 285.1329345703125 C 460.6244812011719 285.1329345703125 468.7290649414063 275.3252868652344 468.7290649414063 263.2699890136719 L 468.7290649414063 22.8629150390625 C 468.7290649414063 10.8076171875 460.6244812011719 0.999969482421875 450.6625366210938 0.999969482421875 L 19.06646728515625 0.999969482421875 M 19.06646728515625 -3.0517578125e-05 L 450.6625366210938 -3.0517578125e-05 C 461.1927185058594 -3.0517578125e-05 469.7290649414063 10.236083984375 469.7290649414063 22.8629150390625 L 469.7290649414063 263.2699890136719 C 469.7290649414063 275.8967895507813 461.1927185058594 286.1329345703125 450.6625366210938 286.1329345703125 L 19.06646728515625 286.1329345703125 C 8.536346435546875 286.1329345703125 0 275.8967895507813 0 263.2699890136719 L 0 22.8629150390625 C 0 10.236083984375 8.536346435546875 -3.0517578125e-05 19.06646728515625 -3.0517578125e-05 Z"/></g><rect class="b" width="242" height="60" rx="11" transform="translate(1037.642 381)"/><rect class="b" width="382" height="61" rx="11" transform="translate(1037.642 466)"/><rect class="b" width="345" height="61" rx="11" transform="translate(1037.642 552)"/><rect class="b" width="176" height="12" transform="translate(1073.642 387)"/><rect class="b" width="303" height="12" transform="translate(1073.642 473)"/><rect class="b" width="278" height="12" transform="translate(1073.642 559)"/><rect class="b" width="176" height="12" transform="translate(1073.642 404)"/><rect class="b" width="317" height="12" transform="translate(1073.642 490)"/><rect class="b" width="264" height="12" transform="translate(1073.642 576)"/><rect class="b" width="156" height="11" transform="translate(1073.642 421)"/><rect class="b" width="201" height="11" transform="translate(1073.642 507)"/><rect class="b" width="108" height="11" transform="translate(1073.642 593)"/><circle class="c" cx="9" cy="9" r="9" transform="translate(1045.642 385)"/><circle class="c" cx="9" cy="9" r="9" transform="translate(1045.642 471)"/><circle class="c" cx="9" cy="9" r="9" transform="translate(1045.642 557)"/></g></g></svg>