<svg xmlns="http://www.w3.org/2000/svg" width="223.928" height="46.472" viewBox="0 0 223.928 46.472"><defs><style>.a{fill:#fff;}</style></defs><g transform="translate(-66 -46)"><g transform="translate(55 5)"><path class="a" d="M13.516,0,9.951-7.812q-.31.031-.6.031H5.239V0H1.86V-23H8.773q.62,0,1.441.046a9.64,9.64,0,0,1,1.674.248,6.364,6.364,0,0,1,1.674.667,4.977,4.977,0,0,1,1.472,1.3,6.441,6.441,0,0,1,1.039,2.155,11.5,11.5,0,0,1,.387,3.208,12.5,12.5,0,0,1-.248,2.65,7.085,7.085,0,0,1-.7,1.938A5.575,5.575,0,0,1,14.493-9.44a5.485,5.485,0,0,1-1.225.884L17.236,0ZM7.471-11.16q.93,0,1.938-.031a4.624,4.624,0,0,0,1.813-.4,3.061,3.061,0,0,0,1.333-1.24,4.96,4.96,0,0,0,.527-2.542,4.96,4.96,0,0,0-.527-2.542,3.061,3.061,0,0,0-1.333-1.24,4.785,4.785,0,0,0-1.8-.418q-.992-.047-1.922-.047H5.239v8.463Zm20.863-5.394a7.555,7.555,0,0,1,2.945.511,6.554,6.554,0,0,1,2.015,1.287,6.4,6.4,0,0,1,1.286,1.72,9.388,9.388,0,0,1,.713,1.814,8.25,8.25,0,0,1,.279,1.535q.046.666.047.914v1.612h-11.9a2.913,2.913,0,0,0,.248.969,4.457,4.457,0,0,0,.791,1.261A4.752,4.752,0,0,0,26.18-3.84a4.611,4.611,0,0,0,2.154.461,10.1,10.1,0,0,0,2.34-.248,13.131,13.131,0,0,0,1.813-.558A8.384,8.384,0,0,0,34.1-4.991v3.458a2.587,2.587,0,0,1-.914.563,9.56,9.56,0,0,1-1.535.485q-.868.2-1.767.344A10.232,10.232,0,0,1,28.334,0a9.433,9.433,0,0,1-1.069-.093,7.717,7.717,0,0,1-1.628-.418,9.442,9.442,0,0,1-1.829-.915,7.036,7.036,0,0,1-1.7-1.55,7.938,7.938,0,0,1-1.271-2.372,10.276,10.276,0,0,1-.5-3.395,7.572,7.572,0,0,1,.543-2.759,7.953,7.953,0,0,1,1.566-2.511,8.119,8.119,0,0,1,2.511-1.829A7.725,7.725,0,0,1,28.334-16.554ZM32.24-9.92a4.8,4.8,0,0,0-.589-1.86,4.407,4.407,0,0,0-1.163-1.3,3.392,3.392,0,0,0-2.124-.589,5.043,5.043,0,0,0-2.263.45,4.575,4.575,0,0,0-1.426,1.054,3.738,3.738,0,0,0-.744,1.24,3.337,3.337,0,0,0-.217,1.007Zm16.306-6.572a7.587,7.587,0,0,1,3.131.651,8.139,8.139,0,0,1,2.542,1.767,8.2,8.2,0,0,1,1.705,2.62,8.333,8.333,0,0,1,.62,3.208,8.333,8.333,0,0,1-.62,3.208,8.2,8.2,0,0,1-1.705,2.62A8.139,8.139,0,0,1,51.677-.651,7.587,7.587,0,0,1,48.546,0a7.483,7.483,0,0,1-2.806-.527,8.108,8.108,0,0,1-2.372-1.457V6.758H39.99V-16.523h3.379v1.984a8.479,8.479,0,0,1,2.372-1.426A7.483,7.483,0,0,1,48.546-16.492ZM48.081-3.441a4.331,4.331,0,0,0,1.813-.387,4.88,4.88,0,0,0,1.488-1.039A4.886,4.886,0,0,0,52.39-6.4a4.784,4.784,0,0,0,.372-1.876,4.862,4.862,0,0,0-.372-1.906,4.886,4.886,0,0,0-1.007-1.535,4.664,4.664,0,0,0-1.488-1.023,4.485,4.485,0,0,0-1.813-.372,4.561,4.561,0,0,0-1.845.372,4.664,4.664,0,0,0-1.488,1.023,4.886,4.886,0,0,0-1.007,1.535,4.862,4.862,0,0,0-.372,1.906A4.783,4.783,0,0,0,43.741-6.4a4.886,4.886,0,0,0,1.007,1.535,4.88,4.88,0,0,0,1.488,1.039A4.4,4.4,0,0,0,48.081-3.441ZM63.023,0H59.644V-23h3.379Zm4.34-16.523h3.875L75.578-5.89l4.278-10.633h3.875L74.369,6.758H70.432l3.162-7.75Z" transform="translate(78 75)"/><path class="a" d="M1.55-23,15.221-8.463V-23H18.6V0L4.929-13.981V0H1.55Zm23.529,3.72H21.7V-23h3.379ZM21.7-16.523h3.379V0H21.7ZM29.419,0V-16.523H32.8l-.031,2.294a4.7,4.7,0,0,1,1.085-1.147,6.547,6.547,0,0,1,1.5-.791,6.417,6.417,0,0,1,2.31-.356,6.02,6.02,0,0,1,2.774.543,3.865,3.865,0,0,1,1.581,1.457,5.627,5.627,0,0,1,.713,2.077,16.541,16.541,0,0,1,.17,2.4V0H39.525V-10.261A2.638,2.638,0,0,0,38.877-12a2.315,2.315,0,0,0-1.882-.775,5.067,5.067,0,0,0-1.589.248,3.808,3.808,0,0,0-1.327.744,3.763,3.763,0,0,0-.926,1.24A3.992,3.992,0,0,0,32.8-8.8V0ZM50-19.282H46.624V-23H50Zm-3.379,2.759H50V6.758H46.624Zm24.3.93V0H67.549V-2.232A8.3,8.3,0,0,1,64.914,0a6.937,6.937,0,0,1-3.348.837A6.952,6.952,0,0,1,58.528.155a8.007,8.007,0,0,1-2.5-1.86,8.93,8.93,0,0,1-1.69-2.743,9.051,9.051,0,0,1-.62-3.364,9.051,9.051,0,0,1,.62-3.363,8.93,8.93,0,0,1,1.69-2.744,8.007,8.007,0,0,1,2.5-1.86,6.952,6.952,0,0,1,3.038-.682,7.041,7.041,0,0,1,3.348.821,7.969,7.969,0,0,1,2.635,2.248v-2.2ZM62.465-2.635a4.936,4.936,0,0,0,1.984-.4,5.02,5.02,0,0,0,1.612-1.1,5.342,5.342,0,0,0,1.085-1.628,5.013,5.013,0,0,0,.4-2.015,5.046,5.046,0,0,0-.4-2,5.291,5.291,0,0,0-1.085-1.643,5.02,5.02,0,0,0-1.612-1.1,4.936,4.936,0,0,0-1.984-.4,4.936,4.936,0,0,0-1.984.4,5.2,5.2,0,0,0-1.627,1.1,5.156,5.156,0,0,0-1.1,1.643,5.046,5.046,0,0,0-.4,2,5.013,5.013,0,0,0,.4,2.015,5.2,5.2,0,0,0,1.1,1.628,5.2,5.2,0,0,0,1.627,1.1A4.936,4.936,0,0,0,62.465-2.635Z" transform="translate(164 75)"/></g><path class="a" d="M1103.72,709.153c-.285.055-.668-.208-.953.055s-1.238.592-1.457.909a13.515,13.515,0,0,1-3.089,1.972c-.34,0-1.227.34-1.709.34s-1.468-.066-1.468-.066a8.758,8.758,0,0,0,.384-.822c.164-.416.11-.537.394-.581a2.759,2.759,0,0,0,.734-.274,6.18,6.18,0,0,0,1.227-.362s-.011.394.143.394.186-.208.394-.416a.628.628,0,0,0,.164-.6.993.993,0,0,1-.077-.482.445.445,0,0,0-.482-.46c-.329,0-.723-.132-.811-.34a.776.776,0,0,0-.833-.362,9.782,9.782,0,0,1-1.391.657s-.46-.953-1.107-.811a2.543,2.543,0,0,0-1.227.471s-1.326-1.1-1.841-1.019a1.408,1.408,0,0,0-.756.318,7.961,7.961,0,0,0-1.589-.679,7.293,7.293,0,0,0-2.169-.592s-.132-.646-2.126-.625c0,0-.153-.339-.3-.383s-.46,0-.416-.274-.252-.438-.723-.833-1.238-.8-1.348-.953-.624-.318-.712-.482-1.019-.778-1.337-1.205a7.276,7.276,0,0,1-.46-.679,3.97,3.97,0,0,0,.7-1.446,2.8,2.8,0,0,1,.482-1.435,7.917,7.917,0,0,0,.482-1.216.982.982,0,0,0-.427-1.38,2.611,2.611,0,0,0-.657-1.074c-.46-.406-.318-.679-.789-.57,0,0-.471-.12-.449-.526s-.493-.876-.526-1.205a2.9,2.9,0,0,0-1-1.227c-.241-.12-.3-.449-.614-.449s-.657.362-.778.5a6.488,6.488,0,0,0-1.38,1.216c-.351.57-.34.92-.679,1.183a12.586,12.586,0,0,0-1.107,1.282,3.014,3.014,0,0,0-.423,1.194s-.16-.369-.465-.192a3.474,3.474,0,0,1-.832-.6c-.419-.4-.509-.871-1.405-.863s-1.487.625-1.808.263-.764-.5-.731-.83.016-.583-.477-.46a1.259,1.259,0,0,1-.337-.608c-.016-.279-.312-.353-.518-.362s-.616-.723-.962-.756a1.361,1.361,0,0,1-1.019-.32,3.949,3.949,0,0,0-2-.723,3.781,3.781,0,0,1-2.021-.625c-.14-.279-.263-.986-1.191-.912a4.321,4.321,0,0,1-.731-.509c-.131-.164-.205-.074-.444-.09s-.846-.2-1.118-.189-.624.181-.427.4a2.833,2.833,0,0,1-.748.049c-.123-.058-.378.238-.583.255s-.427.649-.394.822a.818.818,0,0,0-.2.822s-.3-.033-.312.181.222.156.222.156.057.419.394.427l-.46,1.956a.764.764,0,0,0-.838.362c-.312.509.115.633.115.633s-.131.411.427.625a40.144,40.144,0,0,0-1.072,7.826c-.4,5.628-.1,7.959.248,8.207s.595.05.595-1.289-.3-8.381,1.413-14.381a.579.579,0,0,0,.739-.088c.3-.362.186-.734.022-.756,0,0,.066-.592-.307-.778l.351-1.468a4.314,4.314,0,0,0,.537-.625c.142-.241.842-.186.969.03a4.51,4.51,0,0,1,.137,2.1c-.176.6-.293,1.135-.039,1.3a3.011,3.011,0,0,0,1.359.636,2.6,2.6,0,0,1,1.653.91,7.343,7.343,0,0,0,2.21,1.946s.44.763.606.959.626,1.115.8,1.271a3.006,3.006,0,0,0,.792,1.614s.039.743.059.959a.943.943,0,0,1-.059.577,11.418,11.418,0,0,0-.825,3.646,9.571,9.571,0,0,0-.04,3.419,2.6,2.6,0,0,1-.054,1.346,1.168,1.168,0,0,0-.283.579c-.04.3.027.471-.888.848,0,0-.431-.431-.66-.242s-.041.781-.188.848a1.413,1.413,0,0,0-.875.915,3.142,3.142,0,0,0-.417,1.952c.121.956.135,2.665.646,3.231s.821,1.117.552,1.306-.256.525.094.834a19.961,19.961,0,0,1,2.557,3.85s-.013,1.252.391,1.252.579-.067.7.161a20.376,20.376,0,0,0,1.2,2.356l.552.835a9.307,9.307,0,0,1,.983,1.79,2.483,2.483,0,0,0,.861,1.723,1.754,1.754,0,0,0,1.885-1.4c.067-.485-.256-.606-.215-.9s-.121-.458-.5-.983-.861-.915-.673-1.252a2.886,2.886,0,0,0,.162-1.588c-.108-.39-.66-.592-1.077-.592s-1.158-.323-1.239-1.844c0,0,1.658-.953,1.68-1.763s-.526-3.09.131-3.418,1.074-.5,1.074-.5a1.52,1.52,0,0,0,.9.351,7.948,7.948,0,0,1,.833-.132,24.619,24.619,0,0,1,4.711-.811,20.441,20.441,0,0,0,6.618-1.359,3.535,3.535,0,0,1,2.082-.592,4.929,4.929,0,0,0,2.542-.679,10.454,10.454,0,0,0,3.835,0c1.775-.416,1.885-1.49,3.177-1.49s3.287-.372,3.922-.329a2.217,2.217,0,0,1,1.276.435,1.04,1.04,0,0,0,1.474-.528,2.856,2.856,0,0,0,.417-1.485,1.675,1.675,0,0,1,.942-1.337c.668-.307,1.468-.548,1.567-1.315,0,0,.953-.252.953-.975A.636.636,0,0,0,1103.72,709.153Zm-20.888,3.084a7.88,7.88,0,0,0-1.38.016c-.509.033-1.709.082-2.2.115a5.852,5.852,0,0,0-1.315,0c-.559.131-1.118-.23-2.432-.657a3.466,3.466,0,0,0-2.12-.1c-.214,0-.411-.509-.411-.509l.049-.1a1.687,1.687,0,0,0,.066-.411s.148.131.509-.033.674-.838.822-.9a1.145,1.145,0,0,0,.312-.263,16.2,16.2,0,0,0,1.643-.214,3.58,3.58,0,0,1,1.594.608,3.591,3.591,0,0,0,.97.427c0,.181.822.427,1.446.657a11.377,11.377,0,0,0,2.383.526,3.745,3.745,0,0,1,.937.2A.991.991,0,0,0,1082.832,712.237Z" transform="translate(-985.495 -642.046)"/></g></svg>